%TF.GenerationSoftware,KiCad,Pcbnew,10.0.1*%
%TF.CreationDate,2026-05-31T13:00:54+02:00*%
%TF.ProjectId,BladeCore-M54E,426c6164-6543-46f7-9265-2d4d3534452e,rev?*%
%TF.SameCoordinates,Original*%
%TF.FileFunction,Paste,Bot*%
%TF.FilePolarity,Positive*%
%FSLAX46Y46*%
G04 Gerber Fmt 4.6, Leading zero omitted, Abs format (unit mm)*
G04 Created by KiCad (PCBNEW 10.0.1) date 2026-05-31 13:00:54*
%MOMM*%
%LPD*%
G01*
G04 APERTURE LIST*
G04 Aperture macros list*
%AMRoundRect*
0 Rectangle with rounded corners*
0 $1 Rounding radius*
0 $2 $3 $4 $5 $6 $7 $8 $9 X,Y pos of 4 corners*
0 Add a 4 corners polygon primitive as box body*
4,1,4,$2,$3,$4,$5,$6,$7,$8,$9,$2,$3,0*
0 Add four circle primitives for the rounded corners*
1,1,$1+$1,$2,$3*
1,1,$1+$1,$4,$5*
1,1,$1+$1,$6,$7*
1,1,$1+$1,$8,$9*
0 Add four rect primitives between the rounded corners*
20,1,$1+$1,$2,$3,$4,$5,0*
20,1,$1+$1,$4,$5,$6,$7,0*
20,1,$1+$1,$6,$7,$8,$9,0*
20,1,$1+$1,$8,$9,$2,$3,0*%
G04 Aperture macros list end*
%ADD10R,0.350000X2.500000*%
%ADD11RoundRect,0.135000X0.185000X-0.135000X0.185000X0.135000X-0.185000X0.135000X-0.185000X-0.135000X0*%
%ADD12RoundRect,0.140000X-0.170000X0.140000X-0.170000X-0.140000X0.170000X-0.140000X0.170000X0.140000X0*%
%ADD13RoundRect,0.140000X0.170000X-0.140000X0.170000X0.140000X-0.170000X0.140000X-0.170000X-0.140000X0*%
%ADD14RoundRect,0.140000X-0.140000X-0.170000X0.140000X-0.170000X0.140000X0.170000X-0.140000X0.170000X0*%
%ADD15RoundRect,0.140000X0.140000X0.170000X-0.140000X0.170000X-0.140000X-0.170000X0.140000X-0.170000X0*%
%ADD16RoundRect,0.100000X0.100000X-0.400000X0.100000X0.400000X-0.100000X0.400000X-0.100000X-0.400000X0*%
%ADD17RoundRect,0.125000X0.175000X0.125000X-0.175000X0.125000X-0.175000X-0.125000X0.175000X-0.125000X0*%
%ADD18RoundRect,0.135000X-0.135000X-0.185000X0.135000X-0.185000X0.135000X0.185000X-0.135000X0.185000X0*%
%ADD19RoundRect,0.135000X-0.185000X0.135000X-0.185000X-0.135000X0.185000X-0.135000X0.185000X0.135000X0*%
%ADD20RoundRect,0.250000X-0.650000X1.000000X-0.650000X-1.000000X0.650000X-1.000000X0.650000X1.000000X0*%
%ADD21RoundRect,0.250000X-0.650000X0.325000X-0.650000X-0.325000X0.650000X-0.325000X0.650000X0.325000X0*%
G04 APERTURE END LIST*
D10*
%TO.C,J1*%
X23678620Y1844293D03*
X23178620Y1844293D03*
X22678620Y1844293D03*
X22178620Y1844293D03*
X21678620Y1844293D03*
X21178620Y1844293D03*
X20678620Y1844293D03*
X20178620Y1844293D03*
X19678620Y1844293D03*
X19178620Y1844293D03*
X18678620Y1844293D03*
X18178620Y1844293D03*
X17678620Y1844293D03*
X17178620Y1844293D03*
X16678620Y1844293D03*
X16178620Y1844293D03*
X15678620Y1844293D03*
X15178620Y1844293D03*
X14678620Y1844293D03*
X14178620Y1844293D03*
X13678620Y1844293D03*
X13178620Y1844293D03*
X12678620Y1844293D03*
X12178620Y1844293D03*
X11678620Y1844293D03*
X11178620Y1844293D03*
X10678620Y1844293D03*
X10178620Y1844293D03*
X9678620Y1844293D03*
X7178620Y1844293D03*
X6678620Y1844293D03*
X6178620Y1844293D03*
X5678620Y1844293D03*
%TD*%
D11*
%TO.C,R48*%
X12970000Y14850000D03*
X12970000Y15870000D03*
%TD*%
D12*
%TO.C,C14*%
X14079212Y55470788D03*
X14079212Y54510788D03*
%TD*%
%TO.C,C4*%
X15304212Y55470788D03*
X15304212Y54510788D03*
%TD*%
%TO.C,C3*%
X17304212Y55445788D03*
X17304212Y54485788D03*
%TD*%
D13*
%TO.C,C8*%
X10679212Y47640788D03*
X10679212Y48600788D03*
%TD*%
D14*
%TO.C,C7*%
X10694212Y51945788D03*
X11654212Y51945788D03*
%TD*%
%TO.C,C5*%
X10699212Y55245788D03*
X11659212Y55245788D03*
%TD*%
D11*
%TO.C,R49*%
X13970000Y14860000D03*
X13970000Y15880000D03*
%TD*%
D14*
%TO.C,C15*%
X10694212Y50995788D03*
X11654212Y50995788D03*
%TD*%
D15*
%TO.C,C31*%
X5404212Y44820788D03*
X4444212Y44820788D03*
%TD*%
D16*
%TO.C,IC10*%
X4278154Y25900000D03*
X3628154Y25900000D03*
X2978154Y25900000D03*
X2978154Y27675000D03*
X3628154Y27675000D03*
X4278154Y27675000D03*
%TD*%
D15*
%TO.C,C27*%
X5409212Y48770788D03*
X4449212Y48770788D03*
%TD*%
D17*
%TO.C,D1*%
X13200000Y70000000D03*
X13200000Y69000000D03*
X11900000Y69500000D03*
%TD*%
D13*
%TO.C,C9*%
X14079212Y47465788D03*
X14079212Y48425788D03*
%TD*%
D18*
%TO.C,R18*%
X12060000Y67730000D03*
X13080000Y67730000D03*
%TD*%
D15*
%TO.C,C32*%
X5404212Y43845788D03*
X4444212Y43845788D03*
%TD*%
D19*
%TO.C,R38*%
X10950000Y15870000D03*
X10950000Y14850000D03*
%TD*%
D15*
%TO.C,C1*%
X18589212Y49270788D03*
X17629212Y49270788D03*
%TD*%
D12*
%TO.C,C37*%
X15190000Y15880000D03*
X15190000Y14920000D03*
%TD*%
D20*
%TO.C,D9*%
X2325000Y21000000D03*
X2325000Y17000000D03*
%TD*%
D21*
%TO.C,C59*%
X16950000Y76275000D03*
X16950000Y73325000D03*
%TD*%
D20*
%TO.C,D8*%
X16400000Y63800000D03*
X16400000Y59800000D03*
%TD*%
D14*
%TO.C,C43*%
X14520000Y21350000D03*
X15480000Y21350000D03*
%TD*%
D15*
%TO.C,C13*%
X18734212Y51270788D03*
X17774212Y51270788D03*
%TD*%
%TO.C,C2*%
X18734212Y53245788D03*
X17774212Y53245788D03*
%TD*%
D19*
%TO.C,R37*%
X11960000Y15870000D03*
X11960000Y14850000D03*
%TD*%
D14*
%TO.C,C60*%
X2820654Y24337500D03*
X3780654Y24337500D03*
%TD*%
D15*
%TO.C,C30*%
X5409212Y45795788D03*
X4449212Y45795788D03*
%TD*%
D18*
%TO.C,R17*%
X12050000Y71260000D03*
X13070000Y71260000D03*
%TD*%
D15*
%TO.C,C26*%
X5429212Y49745788D03*
X4469212Y49745788D03*
%TD*%
D13*
%TO.C,C16*%
X12754212Y47465788D03*
X12754212Y48425788D03*
%TD*%
D15*
%TO.C,C25*%
X5429212Y50720788D03*
X4469212Y50720788D03*
%TD*%
D13*
%TO.C,C10*%
X16879212Y47390788D03*
X16879212Y48350788D03*
%TD*%
D15*
%TO.C,C28*%
X5404212Y47770788D03*
X4444212Y47770788D03*
%TD*%
%TO.C,C29*%
X5404212Y46770788D03*
X4444212Y46770788D03*
%TD*%
%TO.C,C48*%
X12980000Y21350000D03*
X12020000Y21350000D03*
%TD*%
M02*
